<svg id="062da9a5-1eb7-4ba6-80f9-44c3c3b449cf" data-name="Layer 1" xmlns="http://www.w3.org/2000/svg" viewBox="0 0 137 55"><defs><style>.\32 47f14b9-afb9-4ac3-ab63-f841a3ff0b78{fill:#333;}.\37 e20ea3a-7324-46f9-8b8a-7b02275c1fb9{fill:#fff;}.\32 63ce09d-84f3-4d04-bb1f-00252585d53f{fill:#f54545;}.ba030917-fee5-4424-9d03-73f551a0729b{fill:none;stroke:#000;}.\39 42f516c-383f-4421-be8d-e3f1c325937a,.ba030917-fee5-4424-9d03-73f551a0729b{stroke-miterlimit:10;}.\39 42f516c-383f-4421-be8d-e3f1c325937a{fill:#6f6f6f;stroke:#6f6f6f;}</style></defs><title>avatar_65</title><rect class="247f14b9-afb9-4ac3-ab63-f841a3ff0b78" width="137" height="55"/><path class="7e20ea3a-7324-46f9-8b8a-7b02275c1fb9" d="M25.39,21.5h18l-9,9Zm0,10.5V23l4.5,4.5Zm0,1.5,5.25-5.25L34.39,32l3.75-3.75,5.25,5.25Zm13.5-6,4.5-4.5v9Z"/><rect class="263ce09d-84f3-4d04-bb1f-00252585d53f" x="33" y="14" width="24" height="13" rx="2" ry="2"/><path class="7e20ea3a-7324-46f9-8b8a-7b02275c1fb9" d="M42.09,19.72q0,4.19-3.24,4.19a3.31,3.31,0,0,1-.9-.1v-.7a2.88,2.88,0,0,0,.89.13,2.16,2.16,0,0,0,1.77-.73,3.66,3.66,0,0,0,.65-2.22H41.2a1.74,1.74,0,0,1-.71.62,2.29,2.29,0,0,1-1,.21,2,2,0,0,1-1.5-.57A2.16,2.16,0,0,1,37.43,19a2.42,2.42,0,0,1,.62-1.76A2.38,2.38,0,0,1,41,16.95,2.36,2.36,0,0,1,41.8,18,4.44,4.44,0,0,1,42.09,19.72Zm-2.4-2.46a1.34,1.34,0,0,0-1.08.45A1.87,1.87,0,0,0,38.23,19a1.63,1.63,0,0,0,.35,1.11,1.34,1.34,0,0,0,1.07.4,1.85,1.85,0,0,0,.82-.18,1.48,1.48,0,0,0,.59-.49,1.14,1.14,0,0,0,.21-.65,2.24,2.24,0,0,0-.2-.95,1.65,1.65,0,0,0-.56-.68A1.41,1.41,0,0,0,39.69,17.27Z"/><path class="7e20ea3a-7324-46f9-8b8a-7b02275c1fb9" d="M47.81,19.72q0,4.19-3.24,4.19a3.31,3.31,0,0,1-.9-.1v-.7a2.88,2.88,0,0,0,.89.13,2.16,2.16,0,0,0,1.77-.73A3.66,3.66,0,0,0,47,20.29h-.06a1.74,1.74,0,0,1-.71.62,2.29,2.29,0,0,1-1,.21,2,2,0,0,1-1.5-.57A2.16,2.16,0,0,1,43.15,19a2.42,2.42,0,0,1,.62-1.76,2.38,2.38,0,0,1,2.91-.27A2.36,2.36,0,0,1,47.52,18,4.44,4.44,0,0,1,47.81,19.72Zm-2.4-2.46a1.34,1.34,0,0,0-1.08.45A1.87,1.87,0,0,0,43.95,19a1.63,1.63,0,0,0,.35,1.11,1.34,1.34,0,0,0,1.07.4,1.85,1.85,0,0,0,.82-.18,1.48,1.48,0,0,0,.59-.49,1.14,1.14,0,0,0,.21-.65,2.24,2.24,0,0,0-.2-.95,1.65,1.65,0,0,0-.56-.68A1.41,1.41,0,0,0,45.41,17.27Z"/><path class="7e20ea3a-7324-46f9-8b8a-7b02275c1fb9" d="M51.53,20h2v.67h-2v2.08h-.68V20.63h-2V20h2V17.86h.68Z"/><line class="ba030917-fee5-4424-9d03-73f551a0729b" x1="74" y1="18" x2="74" y2="37"/><line class="942f516c-383f-4421-be8d-e3f1c325937a" x1="75" y1="18" x2="75" y2="37"/><path class="7e20ea3a-7324-46f9-8b8a-7b02275c1fb9" d="M101.53,31.66H96.76V23.09h4.78V24H97.75v2.76h3.55v.88H97.75v3.15h3.78Z"/><path class="7e20ea3a-7324-46f9-8b8a-7b02275c1fb9" d="M104.2,25.23V29.4a1.68,1.68,0,0,0,.36,1.17,1.46,1.46,0,0,0,1.12.39,1.83,1.83,0,0,0,1.47-.55,2.78,2.78,0,0,0,.47-1.8V25.23h1v6.42h-.8l-.14-.86h-.05a1.94,1.94,0,0,1-.83.73,2.79,2.79,0,0,1-1.21.25,2.45,2.45,0,0,1-1.75-.56,2.37,2.37,0,0,1-.58-1.78v-4.2Z"/><path class="7e20ea3a-7324-46f9-8b8a-7b02275c1fb9" d="M115.91,25.23v.62l-1.19.14a2.09,2.09,0,0,1,.42,1.28,1.9,1.9,0,0,1-.64,1.51,2.6,2.6,0,0,1-1.77.56,3,3,0,0,1-.54,0,1,1,0,0,0-.62.83.42.42,0,0,0,.22.39,1.58,1.58,0,0,0,.74.13h1.14a2.55,2.55,0,0,1,1.6.44,1.53,1.53,0,0,1,.56,1.28A1.82,1.82,0,0,1,115,34a4.58,4.58,0,0,1-2.5.56,3.41,3.41,0,0,1-1.94-.47,1.51,1.51,0,0,1-.68-1.32,1.49,1.49,0,0,1,.38-1,1.91,1.91,0,0,1,1.05-.58,1,1,0,0,1-.41-.35.91.91,0,0,1-.17-.54,1,1,0,0,1,.19-.62,2,2,0,0,1,.59-.51,1.73,1.73,0,0,1-.81-.7,2,2,0,0,1-.31-1.12,2.08,2.08,0,0,1,.63-1.63,2.58,2.58,0,0,1,1.79-.57,3.26,3.26,0,0,1,.91.12Zm-5.12,7.5a.87.87,0,0,0,.44.79,2.43,2.43,0,0,0,1.26.27,3.52,3.52,0,0,0,1.81-.37,1.12,1.12,0,0,0,.59-1,.79.79,0,0,0-.32-.72,2.5,2.5,0,0,0-1.21-.2h-1.17a1.54,1.54,0,0,0-1,.32A1.13,1.13,0,0,0,110.78,32.73Zm.53-5.44a1.31,1.31,0,0,0,.38,1,1.52,1.52,0,0,0,1.06.35,1.24,1.24,0,0,0,1.42-1.38,1.28,1.28,0,0,0-1.44-1.45,1.43,1.43,0,0,0-1.05.37A1.49,1.49,0,0,0,111.31,27.29Z"/><path class="7e20ea3a-7324-46f9-8b8a-7b02275c1fb9" d="M119.94,31.77a3,3,0,0,1-2.25-.87,3.36,3.36,0,0,1-.82-2.41,3.72,3.72,0,0,1,.76-2.47,2.54,2.54,0,0,1,2.05-.91,2.42,2.42,0,0,1,1.91.79,3,3,0,0,1,.7,2.09v.62h-4.42a2.55,2.55,0,0,0,.57,1.72,2,2,0,0,0,1.53.59,5.17,5.17,0,0,0,2.05-.43v.87a5.15,5.15,0,0,1-1,.32A5.48,5.48,0,0,1,119.94,31.77Zm-.26-5.84a1.59,1.59,0,0,0-1.23.5,2.32,2.32,0,0,0-.54,1.39h3.36a2.14,2.14,0,0,0-.41-1.41A1.44,1.44,0,0,0,119.67,25.93Z"/><path class="7e20ea3a-7324-46f9-8b8a-7b02275c1fb9" d="M128.35,31.66V27.5a1.68,1.68,0,0,0-.36-1.17,1.46,1.46,0,0,0-1.12-.39,1.85,1.85,0,0,0-1.48.54,2.75,2.75,0,0,0-.47,1.8v3.37h-1V25.23h.79l.16.88h0a2,2,0,0,1,.84-.74,2.72,2.72,0,0,1,1.2-.26,2.44,2.44,0,0,1,1.75.56,2.38,2.38,0,0,1,.59,1.79v4.19Z"/><path class="7e20ea3a-7324-46f9-8b8a-7b02275c1fb9" d="M134,31.77a3,3,0,0,1-2.25-.87A3.36,3.36,0,0,1,131,28.5a3.72,3.72,0,0,1,.76-2.47,2.54,2.54,0,0,1,2.05-.91,2.42,2.42,0,0,1,1.91.79,3,3,0,0,1,.7,2.09v.62H132a2.55,2.55,0,0,0,.57,1.72,2,2,0,0,0,1.53.59,5.17,5.17,0,0,0,2.05-.43v.87a5.15,5.15,0,0,1-1,.32A5.48,5.48,0,0,1,134,31.77Zm-.26-5.84a1.59,1.59,0,0,0-1.23.5,2.32,2.32,0,0,0-.54,1.39h3.36a2.14,2.14,0,0,0-.41-1.41A1.44,1.44,0,0,0,133.77,25.93Z"/></svg>