<svg id="764f103e-f33f-460c-8c44-c2fa441b34af" data-name="Layer 1" xmlns="http://www.w3.org/2000/svg" viewBox="0 0 116 23"><defs><style>.\32 12dd93d-7757-4bef-b827-a7cc132e55fb{fill:#ee3a3a;}.\38 eb96c27-d0cf-4f2d-91cc-5abca2e4a35d{fill:#fff;}</style></defs><title>label</title><rect class="212dd93d-7757-4bef-b827-a7cc132e55fb" width="116" height="23" rx="3" ry="3"/><path class="8eb96c27-d0cf-4f2d-91cc-5abca2e4a35d" d="M6.23,16.19v-9h4.4a2.29,2.29,0,0,1,2.55,2.28,2,2,0,0,1-1.56,2.05,2.18,2.18,0,0,1,1.73,2.19,2.35,2.35,0,0,1-2.6,2.43Zm5.34-6.42a1.13,1.13,0,0,0-1.25-1.15H7.81v2.31h2.52A1.12,1.12,0,0,0,11.58,9.77Zm.17,3.79a1.24,1.24,0,0,0-1.36-1.25H7.81v2.5H10.4A1.2,1.2,0,0,0,11.75,13.56Z" transform="translate(0 0)"/><path class="8eb96c27-d0cf-4f2d-91cc-5abca2e4a35d" d="M14.95,16.19v-9h6.14V8.62H16.52v2.31H21v1.38H16.52v2.5h4.57v1.38Z" transform="translate(0 0)"/><path class="8eb96c27-d0cf-4f2d-91cc-5abca2e4a35d" d="M22.11,14.93,23,13.7A3.85,3.85,0,0,0,25.83,15c1.29,0,1.79-.63,1.79-1.24,0-1.88-5.21-.71-5.21-4,0-1.49,1.29-2.63,3.26-2.63A4.64,4.64,0,0,1,29,8.35l-.89,1.17a3.65,3.65,0,0,0-2.6-1c-.91,0-1.5.46-1.5,1.11,0,1.68,5.21.64,5.21,4,0,1.49-1.06,2.78-3.46,2.78A4.89,4.89,0,0,1,22.11,14.93Z" transform="translate(0 0)"/><path class="8eb96c27-d0cf-4f2d-91cc-5abca2e4a35d" d="M32.67,16.19V8.62H30V7.23h7V8.62H34.24v7.57Z" transform="translate(0 0)"/><path class="8eb96c27-d0cf-4f2d-91cc-5abca2e4a35d" d="M48,16.19l-.66-1.73H43.26l-.66,1.73H40.81l3.52-9h2l3.52,9ZM45.31,8.8,43.7,13.07h3.22Z" transform="translate(0 0)"/><path class="8eb96c27-d0cf-4f2d-91cc-5abca2e4a35d" d="M57,16.19,52.34,9.78v6.41H50.77v-9h1.61L57,13.44V7.23h1.57v9Z" transform="translate(0 0)"/><path class="8eb96c27-d0cf-4f2d-91cc-5abca2e4a35d" d="M60.44,16.19v-9h3.33a4.37,4.37,0,0,1,4.69,4.47,4.36,4.36,0,0,1-4.67,4.48Zm6.41-4.48a2.89,2.89,0,0,0-3.06-3.09H62v6.19h1.76A2.94,2.94,0,0,0,66.84,11.7Z" transform="translate(0 0)"/><path class="8eb96c27-d0cf-4f2d-91cc-5abca2e4a35d" d="M73.43,16.19v-9h6.14V8.62H75v2.31h4.47v1.38H75v3.88Z" transform="translate(0 0)"/><path class="8eb96c27-d0cf-4f2d-91cc-5abca2e4a35d" d="M81,16.19v-9h1.57v9Z" transform="translate(0 0)"/><path class="8eb96c27-d0cf-4f2d-91cc-5abca2e4a35d" d="M90.71,16.19,86,9.78v6.41H84.46v-9h1.61l4.58,6.2V7.23h1.57v9Z" transform="translate(0 0)"/><path class="8eb96c27-d0cf-4f2d-91cc-5abca2e4a35d" d="M100.41,16.19l-.66-1.73H95.65L95,16.19H93.2l3.52-9h2l3.52,9ZM97.7,8.8l-1.61,4.27h3.22Z" transform="translate(0 0)"/><path class="8eb96c27-d0cf-4f2d-91cc-5abca2e4a35d" d="M103.05,16.19v-9h1.57v7.57h3.95v1.38Z" transform="translate(0 0)"/></svg>